<svg width="12" height="12" viewBox="0 0 12 12" fill="none" xmlns="http://www.w3.org/2000/svg">
<path d="M11.897 0.102973C11.7597 -0.0343242 11.5371 -0.0343242 11.3998 0.102973L10.3758 1.12696C10.3128 1.09696 10.2464 1.07279 10.1771 1.05547L6.99493 0.269308C6.63761 0.179988 6.25379 0.286277 5.99333 0.546738L0.308408 6.22231C-0.102803 6.63355 -0.102803 7.30269 0.308408 7.71394L4.28605 11.6916C4.69729 12.1028 5.36643 12.1028 5.77769 11.6916L11.4533 6.00662C11.7137 5.74616 11.82 5.36234 11.7307 5.00499L10.9445 1.82289C10.9272 1.75356 10.903 1.68711 10.873 1.62416L11.897 0.600175C12.0343 0.462879 12.0343 0.240269 11.897 0.102973ZM11.0485 5.17557C11.0783 5.29468 11.0428 5.4226 10.956 5.50944L5.28044 11.1944C5.14335 11.3314 4.9203 11.3314 4.78321 11.1944L0.805587 7.21672C0.668501 7.07963 0.668501 6.85658 0.805587 6.71949L6.49054 1.04394C6.55703 0.977449 6.64764 0.941097 6.73993 0.941097C6.76815 0.941097 6.79654 0.944495 6.8244 0.951456L9.81339 1.68934L8.96671 2.53602C8.57471 2.34931 8.09052 2.4178 7.76647 2.74185C7.35522 3.1531 7.35522 3.82222 7.76647 4.23348C7.97207 4.43909 8.24218 4.54191 8.51228 4.54191C8.78235 4.54191 9.05246 4.43912 9.25806 4.23348C9.58217 3.90938 9.65064 3.42521 9.46389 3.03322L10.3106 2.18654L11.0485 5.17557ZM8.76088 3.7363C8.62382 3.87336 8.40076 3.87338 8.26368 3.7363C8.12661 3.59924 8.12661 3.37616 8.26368 3.2391C8.33223 3.17054 8.42223 3.1363 8.51228 3.1363C8.60228 3.1363 8.69232 3.17056 8.76083 3.23907L8.76085 3.2391L8.76088 3.23912C8.89796 3.37618 8.89794 3.59924 8.76088 3.7363Z" fill="#2F85FE" stroke="#2F85FE" stroke-width="0.4"/>
</svg>
